<?xml version="1.0" encoding="UTF-8"?>
<svg id="Camada_2" data-name="Camada 2" xmlns="http://www.w3.org/2000/svg" viewBox="0 0 344.46 344.21">
  <defs>
    <style>
      .cls-1 {
        fill: #d6fe95;
      }
    </style>
  </defs>
  <g id="Layer_1" data-name="Layer 1">
    <g>
      <path class="cls-1" d="M343.53,240.11c-.75-19.33-1.52-39.31-.24-57.75v-.2s0-.2,0-.2c-1.91-20.82-17.36-37.15-36.72-38.81-14.27-1.23-29.64-.67-44.51-.12-13.19.48-26.83.98-39.52.21l-.42-.03-.41.12c-5.19,1.47-8.45,5.72-8.3,10.82.15,5.3,3.94,9.68,9.44,10.9l.26.06,81.73.32c8.68,1.67,14.78,8.29,15.55,16.92,1.83,20.4.99,42.66.18,64.19-.75,19.93-1.52,40.54-.2,59.85.12,1.42-1.6,4.88-5.11,8.74-3.82,4.19-7.09,6.03-7.92,6.04h-109.95c2.12-3.98,3.45-8.57,3.97-13.71v-.13s-.03-270.15-.03-270.15l-.03-.38c-3.16-20.46-18.78-34.13-40.74-35.67h-.18s-.18,0-.18,0c-18.35,1.39-38.36.59-57.7-.19C80.87.08,58.53-.81,38.18,1.31,20.72,3.14,6.06,15.81,1.69,32.85l-.07.28v.29c-2.16,91.23-2.16,184.94-.03,278.54v.29s.08.29.08.29c4.55,17.27,19.59,29.97,37.43,31.61h.11s264.14.06,264.14.06h.2c21.21-1.69,37.51-17.68,39.63-38.91,2.07-20.71,1.2-43.32.35-65.19ZM23.32,39.3c1.01-8.68,8.81-13.02,13.69-14.9l126.13-.23c9.23,1.46,15.28,8.2,16.23,18.08v260.87c-.84,10.14-7.59,17.25-17.22,18.11-20.4,1.83-42.66.99-64.19.18-12.09-.45-24.43-.92-36.58-.92-7.75,0-15.42.19-22.89.69-6.5-1.48-11.41-5.46-14.23-11.52-1.35-55.6-1.15-112.33-.95-167.2.12-33.82.25-68.79,0-103.16Z"/>
      <path class="cls-1" d="M230.01,53.18c4.77.56,10.69.29,16.96.01,13.79-.61,29.4-1.31,35.9,6.59,1.57,1.91,4.44,7.97,4.46,9.39v18.95c-3.42-1.36-7.29-2.86-12.31.63-4,2.78-4.6,9.02-3.12,13.73.89,2.86,16.96,18.71,18.65,19.77,2.26,1.41,4.82,2.13,7.3,2.13,2.05,0,4.05-.49,5.79-1.48,1.32-.76,8.16-7.65,11.04-10.58,9.88-10.05,10.15-10.96,10.35-11.62,1.19-3.97.68-9.68-3.27-12.83-4.73-3.77-9.44-2.42-12.42-1.01v-21.68c0-1.66-3.6-11.29-4.07-12.27-5.75-11.82-18.88-20.56-32.67-21.75-8.43-.73-34.68-1.28-43.46.3-5.46.98-9.14,5.62-8.97,11.27.15,4.65,3.25,9.69,9.87,10.46Z"/>
      <path class="cls-1" d="M292.36,267.08c.24.02.47.02.71.02,4.61,0,9.69-2.85,10.97-8.59h0c.84-3.73.81-28.09-.29-31.63-1.36-4.36-7.33-7.61-11.41-7.41-3.74.2-9.17,4.12-9.96,8.26-1,5.27-.58,23.5-.1,28.72.55,6.09,4.51,10.27,10.08,10.63Z"/>
      <path class="cls-1" d="M84.99,61.9c2.12.47,10.39.73,18.04.73,6.13,0,11.87-.17,13.73-.52,4.67-.88,7.86-5.08,7.94-10.45.08-4.67-2.39-9.95-8.06-11.22-4.02-.9-26.67-.9-30.67,0-5.04,1.13-8.56,5.8-8.55,11.37,0,5.11,2.97,9.07,7.56,10.09Z"/>
    </g>
  </g>
</svg>